<svg version="1.1" id="Layer_1" xmlns="http://www.w3.org/2000/svg" xmlns:xlink="http://www.w3.org/1999/xlink" x="0px" y="0px"
	 width="100%" viewBox="450 180 380 270" enable-background="new 0 0 1280 717" xml:space="preserve">
M669.222656,240.686539 
	C668.202820,239.791000 667.182922,238.895462 666.232239,237.310013 
	C667.573425,235.930695 668.673523,234.069016 670.298218,233.256729 
	C676.841370,229.985321 683.625854,227.196762 690.171509,223.929977 
	C697.854126,220.095734 705.559265,215.966614 706.749207,206.197128 
	C707.030090,203.891159 705.614319,201.378540 704.979004,198.960999 
	C702.971375,200.300278 700.262756,201.194458 699.079956,203.057434 
	C694.447388,210.353973 689.173767,216.609848 681.145508,220.575241 
	C674.662537,223.777405 668.784729,228.188492 662.509644,231.841873 
	C661.266907,232.565384 658.938293,233.017715 657.955383,232.350464 
	C646.314880,224.447922 634.796631,224.145493 622.972412,231.961639 
	C621.840759,232.709656 619.342224,232.370758 617.983765,231.620789 
	C612.771851,228.743164 608.018921,224.927750 602.624634,222.511703 
	C594.374878,218.816727 587.934937,213.505646 583.632202,205.575073 
	C582.918457,204.259537 582.256653,202.845459 581.250427,201.779419 
	C580.306641,200.779602 578.561890,199.295074 577.840088,199.601776 
	C576.588318,200.133682 574.866028,202.087997 575.072937,203.086960 
	C575.987488,207.500870 576.631348,212.373520 579.021057,215.991745 
	C583.414917,222.644440 591.068359,225.006119 598.156433,228.008881 
	C604.110535,230.531219 611.164856,231.637161 614.284485,238.795975 
	C614.284485,238.795975 614.084412,238.947372 613.384888,239.009460 
	C604.769531,245.016159 601.031311,256.189026 605.189819,263.510010 
	C605.516907,263.534058 605.886597,263.669342 606.163696,263.563049 
	C607.403076,263.087555 608.610779,262.530426 609.839233,262.025543 
	C622.332581,256.891113 635.272461,253.674072 648.761658,255.943420 
	C656.529541,257.250275 664.094360,259.970703 671.609436,262.478119 
	C674.899048,263.575714 676.824524,264.090576 677.454834,259.738678 
	C678.471741,252.718246 675.347717,244.800903 669.222656,240.686539 
M634.005920,261.034241 
	C608.386108,263.542145 589.946411,276.804688 579.453735,299.881256 
	C566.616516,328.114319 569.442200,356.603394 582.725342,383.831146 
	C593.391602,405.694763 611.272827,418.939697 636.615723,422.553741 
	C654.283142,424.430786 669.757446,418.877380 682.306763,406.876221 
	C706.844482,383.410126 714.573914,353.969055 709.323914,321.132416 
	C704.635864,291.811005 687.979797,271.846649 659.303345,262.867065 
	C651.444519,260.406219 643.252808,258.506775 634.005920,261.034241 
M731.883240,350.921967 
	C729.438293,343.154144 724.831665,337.370239 716.629272,333.775146 
	C716.316101,335.802826 716.075745,337.047211 715.937866,338.302856 
	C715.140747,345.562622 714.792603,352.903229 713.474487,360.065918 
	C711.969177,368.246246 711.955994,375.892761 717.005371,382.960510 
	C718.158508,384.574585 718.889893,386.483612 719.903870,388.204773 
	C722.579834,392.746887 722.787109,397.512848 720.383850,402.052765 
	C718.220032,406.140350 715.410156,409.887726 712.855591,413.765625 
	C712.017029,415.038635 711.085876,416.250641 710.089600,417.640472 
	C722.570068,422.490173 737.127869,414.086975 737.769043,401.620178 
	C738.092957,395.322845 737.050415,388.642090 735.105286,382.626312 
	C733.017334,376.168549 731.423279,369.955688 732.051025,363.143890 
	C732.398254,359.375977 732.041687,355.543213 731.883240,350.921967 
M545.067932,406.058655 
	C550.704285,417.051544 561.630066,422.087036 571.107727,417.498596 
	C569.885254,415.729889 568.810425,413.962433 567.531250,412.357880 
	C557.987671,400.386963 557.863953,393.699249 564.574036,382.977417 
	C567.507935,378.289490 569.647278,373.341461 568.992126,367.495575 
	C567.811890,356.965027 566.896118,346.404907 565.809570,335.863403 
	C565.752991,335.314453 565.133484,334.823517 564.481140,333.878326 
	C562.692810,334.981598 560.849976,335.776917 559.436646,337.049316 
	C553.246277,342.622589 549.245056,349.222809 549.926941,357.997406 
	C550.641724,367.195801 549.263672,375.895142 546.109131,384.787506 
	C543.906677,390.995697 545.112549,398.413025 545.067932,406.058655 
M541.577881,358.793213 
	C542.398804,358.069458 543.967896,357.301086 543.927795,356.628662 
	C543.382263,347.473450 548.316162,340.876678 553.829041,334.458862 
	C561.331482,325.724792 568.451172,316.803070 571.410034,305.242737 
	C572.423218,301.284271 574.697815,297.656769 576.302734,293.838806 
	C577.403503,291.220032 578.343201,288.533539 579.354919,285.877319 
	C576.125610,285.675140 572.897461,285.364105 569.666443,285.330963 
	C568.566284,285.319702 567.448303,285.979156 566.356506,286.381226 
	C557.171143,289.763977 553.004028,297.237885 551.410645,306.110779 
	C549.988342,314.030884 546.500793,320.462891 540.845642,325.987885 
	C539.194580,327.600952 537.831055,329.553711 536.550659,331.492676 
	C531.608582,338.976685 531.758545,346.067688 536.974792,353.316864 
	C538.234619,355.067688 539.687683,356.679443 541.577881,358.793213 
M729.511047,336.022614 
	C735.511963,342.560333 739.304138,350.021545 738.015137,359.795074 
	C749.139648,353.334351 752.308777,339.578308 744.705811,330.781036 
	C737.022339,321.890625 730.876099,312.574524 729.032837,300.806030 
	C728.982117,300.481842 728.842041,300.168274 728.719666,299.859222 
	C724.303528,288.706207 711.742004,282.186096 701.619995,286.093109 
	C702.033142,287.107330 702.404846,288.145569 702.869751,289.140289 
	C705.744446,295.291626 708.729614,301.393158 711.495972,307.592529 
	C713.243530,311.508698 714.066956,315.968719 716.385864,319.468475 
	C720.131897,325.121887 724.768433,330.185242 729.511047,336.022614 
M545.346191,234.541931 
	C542.730591,236.528763 539.809326,238.225830 537.579407,240.578308 
	C534.995361,243.304367 535.948242,245.258606 539.757751,245.901382 
	C553.998291,248.304245 564.685303,256.024506 572.780640,267.812683 
	C574.812866,270.771881 577.435181,273.438293 580.185303,275.768280 
	C585.576172,280.335571 585.692322,280.198517 590.664734,274.936951 
	C597.041748,268.189056 596.885803,268.327148 590.682007,261.326141 
	C586.076904,256.129242 582.556763,249.834885 577.463013,245.237366 
	C568.730469,237.355576 559.036560,230.735413 545.346191,234.541931 
M701.534851,276.016052 
	C703.523926,274.032379 705.885376,272.302673 707.440186,270.022827 
	C716.005066,257.463898 726.786316,248.234787 742.267334,245.508575 
	C745.481873,244.942490 745.049377,242.870590 743.636963,240.676041 
	C740.207947,235.348190 732.175842,231.907318 725.708008,233.446640 
	C714.661804,236.075592 705.521790,241.700653 698.933167,251.173248 
	C696.567993,254.573700 694.243835,258.066040 691.433960,261.081299 
	C684.442993,268.583374 684.644287,268.215179 691.201477,275.785034 
	C694.759155,279.892303 697.480103,279.747986 701.534851,276.016052 
z"/>
<path fill="#3E94E4" opacity="1.000000" stroke="none" 
	d="
M635.896851,422.121002 
	C611.272827,418.939697 593.391602,405.694763 582.725342,383.831146 
	C569.442200,356.603394 566.616516,328.114319 579.453735,299.881256 
	C589.946411,276.804688 608.386108,263.542145 634.872437,261.051941 
	C640.404724,260.063110 641.667542,262.028259 641.656006,266.623535 
	C641.531006,316.397491 641.541260,366.172089 641.711853,415.945862 
	C641.727356,420.464874 640.278320,422.355042 635.896851,422.121002 
z"/>
<path fill="#232F38" opacity="1.000000" stroke="none" 
	d="
M636.256287,422.337372 
	C640.278320,422.355042 641.727356,420.464874 641.711853,415.945862 
	C641.541260,366.172089 641.531006,316.397491 641.656006,266.623535 
	C641.667542,262.028259 640.404724,260.063110 635.302124,260.977844 
	C643.252808,258.506775 651.444519,260.406219 659.303345,262.867065 
	C687.979797,271.846649 704.635864,291.811005 709.323914,321.132416 
	C714.573914,353.969055 706.844482,383.410126 682.306763,406.876221 
	C669.757446,418.877380 654.283142,424.430786 636.256287,422.337372 
z"/>
<path fill="#242E36" opacity="1.000000" stroke="none" 
	d="
M614.323059,238.548019 
	C611.164856,231.637161 604.110535,230.531219 598.156433,228.008881 
	C591.068359,225.006119 583.414917,222.644440 579.021057,215.991745 
	C576.631348,212.373520 575.987488,207.500870 575.072937,203.086960 
	C574.866028,202.087997 576.588318,200.133682 577.840088,199.601776 
	C578.561890,199.295074 580.306641,200.779602 581.250427,201.779419 
	C582.256653,202.845459 582.918457,204.259537 583.632202,205.575073 
	C587.934937,213.505646 594.374878,218.816727 602.624634,222.511703 
	C608.018921,224.927750 612.771851,228.743164 617.983765,231.620789 
	C619.342224,232.370758 621.840759,232.709656 622.972412,231.961639 
	C634.796631,224.145493 646.314880,224.447922 657.955383,232.350464 
	C658.938293,233.017715 661.266907,232.565384 662.509644,231.841873 
	C668.784729,228.188492 674.662537,223.777405 681.145508,220.575241 
	C689.173767,216.609848 694.447388,210.353973 699.079956,203.057434 
	C700.262756,201.194458 702.971375,200.300278 704.979004,198.960999 
	C705.614319,201.378540 707.030090,203.891159 706.749207,206.197128 
	C705.559265,215.966614 697.854126,220.095734 690.171509,223.929977 
	C683.625854,227.196762 676.841370,229.985321 670.298218,233.256729 
	C668.673523,234.069016 667.573425,235.930695 665.850220,237.641144 
	C661.367981,237.719101 658.802490,240.079895 658.645752,244.293304 
	C658.516785,247.759888 660.012085,250.478073 663.545166,250.585938 
	C667.524719,250.707397 669.389526,247.961258 669.490601,244.053116 
	C669.516357,243.058563 669.599854,242.065521 669.656738,241.071777 
	C675.347717,244.800903 678.471741,252.718246 677.454834,259.738678 
	C676.824524,264.090576 674.899048,263.575714 671.609436,262.478119 
	C664.094360,259.970703 656.529541,257.250275 648.761658,255.943420 
	C635.272461,253.674072 622.332581,256.891113 609.839233,262.025543 
	C608.610779,262.530426 607.403076,263.087555 606.163696,263.563049 
	C605.886597,263.669342 605.516907,263.534058 605.190186,263.505554 
	C601.031311,256.189026 604.769531,245.016159 613.717651,239.343079 
	C613.267151,241.487885 611.717773,243.376923 611.891968,245.090820 
	C612.116272,247.297363 613.283325,249.838745 614.889038,251.320496 
	C615.933105,252.283966 619.175293,252.401932 620.199280,251.499344 
	C621.835876,250.056793 623.247742,247.478058 623.319885,245.331451 
	C623.456238,241.275009 618.704956,238.056305 614.323059,238.548019 
z"/>
<path fill="#262D35" opacity="1.000000" stroke="none" 
	d="
M731.942810,351.330811 
	C732.041687,355.543213 732.398254,359.375977 732.051025,363.143890 
	C731.423279,369.955688 733.017334,376.168549 735.105286,382.626312 
	C737.050415,388.642090 738.092957,395.322845 737.769043,401.620178 
	C737.127869,414.086975 722.570068,422.490173 710.089600,417.640472 
	C711.085876,416.250641 712.017029,415.038635 712.855591,413.765625 
	C715.410156,409.887726 718.220032,406.140350 720.383850,402.052765 
	C722.787109,397.512848 722.579834,392.746887 719.903870,388.204773 
	C718.889893,386.483612 718.158508,384.574585 717.005371,382.960510 
	C711.955994,375.892761 711.969177,368.246246 713.474487,360.065918 
	C714.792603,352.903229 715.140747,345.562622 715.937866,338.302856 
	C716.075745,337.047211 716.316101,335.802826 716.629272,333.775146 
	C724.831665,337.370239 729.438293,343.154144 731.942810,351.330811 
z"/>
<path fill="#262D35" opacity="1.000000" stroke="none" 
	d="
M544.931946,405.674438 
	C545.112549,398.413025 543.906677,390.995697 546.109131,384.787506 
	C549.263672,375.895142 550.641724,367.195801 549.926941,357.997406 
	C549.245056,349.222809 553.246277,342.622589 559.436646,337.049316 
	C560.849976,335.776917 562.692810,334.981598 564.481140,333.878326 
	C565.133484,334.823517 565.752991,335.314453 565.809570,335.863403 
	C566.896118,346.404907 567.811890,356.965027 568.992126,367.495575 
	C569.647278,373.341461 567.507935,378.289490 564.574036,382.977417 
	C557.863953,393.699249 557.987671,400.386963 567.531250,412.357880 
	C568.810425,413.962433 569.885254,415.729889 571.107727,417.498596 
	C561.630066,422.087036 550.704285,417.051544 544.931946,405.674438 
z"/>
<path fill="#262D35" opacity="1.000000" stroke="none" 
	d="
M541.314819,358.574219 
	C539.687683,356.679443 538.234619,355.067688 536.974792,353.316864 
	C531.758545,346.067688 531.608582,338.976685 536.550659,331.492676 
	C537.831055,329.553711 539.194580,327.600952 540.845642,325.987885 
	C546.500793,320.462891 549.988342,314.030884 551.410645,306.110779 
	C553.004028,297.237885 557.171143,289.763977 566.356506,286.381226 
	C567.448303,285.979156 568.566284,285.319702 569.666443,285.330963 
	C572.897461,285.364105 576.125610,285.675140 579.354919,285.877319 
	C578.343201,288.533539 577.403503,291.220032 576.302734,293.838806 
	C574.697815,297.656769 572.423218,301.284271 571.410034,305.242737 
	C568.451172,316.803070 561.331482,325.724792 553.829041,334.458862 
	C548.316162,340.876678 543.382263,347.473450 543.927795,356.628662 
	C543.967896,357.301086 542.398804,358.069458 541.314819,358.574219 
z"/>
<path fill="#262D35" opacity="1.000000" stroke="none" 
	d="
M729.269958,335.760193 
	C724.768433,330.185242 720.131897,325.121887 716.385864,319.468475 
	C714.066956,315.968719 713.243530,311.508698 711.495972,307.592529 
	C708.729614,301.393158 705.744446,295.291626 702.869751,289.140289 
	C702.404846,288.145569 702.033142,287.107330 701.619995,286.093109 
	C711.742004,282.186096 724.303528,288.706207 728.719666,299.859222 
	C728.842041,300.168274 728.982117,300.481842 729.032837,300.806030 
	C730.876099,312.574524 737.022339,321.890625 744.705811,330.781036 
	C752.308777,339.578308 749.139648,353.334351 738.015137,359.795074 
	C739.304138,350.021545 735.511963,342.560333 729.269958,335.760193 
z"/>
<path fill="#262D35" opacity="1.000000" stroke="none" 
	d="
M545.713074,234.398911 
	C559.036560,230.735413 568.730469,237.355576 577.463013,245.237366 
	C582.556763,249.834885 586.076904,256.129242 590.682007,261.326141 
	C596.885803,268.327148 597.041748,268.189056 590.664734,274.936951 
	C585.692322,280.198517 585.576172,280.335571 580.185303,275.768280 
	C577.435181,273.438293 574.812866,270.771881 572.780640,267.812683 
	C564.685303,256.024506 553.998291,248.304245 539.757751,245.901382 
	C535.948242,245.258606 534.995361,243.304367 537.579407,240.578308 
	C539.809326,238.225830 542.730591,236.528763 545.713074,234.398911 
z"/>
<path fill="#262D35" opacity="1.000000" stroke="none" 
	d="
M701.258911,276.231995 
	C697.480103,279.747986 694.759155,279.892303 691.201477,275.785034 
	C684.644287,268.215179 684.442993,268.583374 691.433960,261.081299 
	C694.243835,258.066040 696.567993,254.573700 698.933167,251.173248 
	C705.521790,241.700653 714.661804,236.075592 725.708008,233.446640 
	C732.175842,231.907318 740.207947,235.348190 743.636963,240.676041 
	C745.049377,242.870590 745.481873,244.942490 742.267334,245.508575 
	C726.786316,248.234787 716.005066,257.463898 707.440186,270.022827 
	C705.885376,272.302673 703.523926,274.032379 701.258911,276.231995 
z"/>
<path fill="#4390D6" opacity="1.000000" stroke="none" 
	d="
M614.303772,238.671997 
	C618.704956,238.056305 623.456238,241.275009 623.319885,245.331451 
	C623.247742,247.478058 621.835876,250.056793 620.199280,251.499344 
	C619.175293,252.401932 615.933105,252.283966 614.889038,251.320496 
	C613.283325,249.838745 612.116272,247.297363 611.891968,245.090820 
	C611.717773,243.376923 613.267151,241.487885 614.067444,239.312042 
	C614.084412,238.947372 614.284485,238.795975 614.303772,238.671997 
z"/>
<path fill="#4390D6" opacity="1.000000" stroke="none" 
	d="
M669.439697,240.879150 
	C669.599854,242.065521 669.516357,243.058563 669.490601,244.053116 
	C669.389526,247.961258 667.524719,250.707397 663.545166,250.585938 
	C660.012085,250.478073 658.516785,247.759888 658.645752,244.293304 
	C658.802490,240.079895 661.367981,237.719101 665.815552,237.986115 
	C667.182922,238.895462 668.202820,239.791000 669.439697,240.879150 
z"/>
</svg>